<svg width="282" height="85" viewBox="0 0 282 85" fill="none" xmlns="http://www.w3.org/2000/svg">
<path d="M6.44 73C5.61333 73 4.88 72.6667 4.24 72C3.62667 71.3333 3.10667 70.4533 2.68 69.36C2.28 68.2667 1.94667 67.0667 1.68 65.76C1.44 64.4533 1.26667 63.1467 1.16 61.84C1.05333 60.5067 1 59.3067 1 58.24C1 56.88 1.10667 55.44 1.32 53.92C1.53333 52.4 1.90667 50.9733 2.44 49.64C2.97333 48.28 3.70667 47.1733 4.64 46.32C5.57333 45.4667 6.77333 45.04 8.24 45.04C9.25333 45.04 10.1333 45.3733 10.88 46.04C11.6533 46.68 12.3467 47.5867 12.96 48.76C13.5733 49.9067 14.16 51.2267 14.72 52.72C15.28 54.2133 15.88 55.8 16.52 57.48C16.4133 55.1867 16.48 53.1067 16.72 51.24C16.9867 49.3467 17.52 47.84 18.32 46.72C19.12 45.6 20.2533 45.04 21.72 45.04C22.9733 45.04 23.9733 45.4667 24.72 46.32C25.4933 47.1733 26.08 48.28 26.48 49.64C26.88 50.9733 27.1467 52.4 27.28 53.92C27.44 55.44 27.52 56.88 27.52 58.24C27.52 59.3333 27.44 60.5333 27.28 61.84C27.12 63.1467 26.8533 64.4533 26.48 65.76C26.1067 67.0667 25.6 68.2667 24.96 69.36C24.32 70.4533 23.5333 71.3333 22.6 72C21.6933 72.6667 20.6 73 19.32 73C18.1733 73 17.1867 72.64 16.36 71.92C15.56 71.1733 14.84 70.2 14.2 69C13.5867 67.7733 13.0133 66.4267 12.48 64.96C11.9467 63.4933 11.3867 62.0267 10.8 60.56C10.8267 62.4 10.8267 64.0933 10.8 65.64C10.7733 67.16 10.6267 68.4667 10.36 69.56C10.12 70.6533 9.69333 71.5067 9.08 72.12C8.46667 72.7067 7.58667 73 6.44 73ZM38.3447 73C36.3447 73 34.5847 72.6133 33.0647 71.84C31.5714 71.04 30.398 69.96 29.5447 68.6C28.718 67.2133 28.3047 65.6267 28.3047 63.84C28.3047 62.1067 28.718 60.5067 29.5447 59.04C30.398 57.5733 31.558 56.4 33.0247 55.52C34.518 54.64 36.2247 54.2 38.1447 54.2C39.9314 54.2 41.4647 54.56 42.7447 55.28C44.0247 56 44.998 56.92 45.6647 58.04C46.358 59.1333 46.7047 60.2933 46.7047 61.52C46.7047 62.7467 46.4247 63.76 45.8647 64.56C45.3047 65.3333 44.5714 65.9333 43.6647 66.36C42.7847 66.76 41.838 67.0267 40.8247 67.16C39.8114 67.2933 38.838 67.32 37.9047 67.24C36.9714 67.1333 36.1847 66.9733 35.5447 66.76C36.0247 67.5333 36.6247 68.0667 37.3447 68.36C38.0914 68.6267 38.8647 68.7467 39.6647 68.72C40.4914 68.6667 41.238 68.5733 41.9047 68.44C42.7314 68.2533 43.4114 68.2933 43.9447 68.56C44.478 68.8267 44.758 69.2533 44.7847 69.84C44.8114 70.32 44.638 70.8 44.2647 71.28C43.918 71.76 43.278 72.1733 42.3447 72.52C41.4114 72.84 40.078 73 38.3447 73ZM35.6647 61.88C35.9314 62.3067 36.318 62.6133 36.8247 62.8C37.3314 62.96 37.838 63.0133 38.3447 62.96C38.878 62.9067 39.318 62.76 39.6647 62.52C40.038 62.28 40.2247 61.9467 40.2247 61.52C40.2247 61.0667 40.038 60.6667 39.6647 60.32C39.318 59.9467 38.758 59.76 37.9847 59.76C37.238 59.76 36.6647 60 36.2647 60.48C35.8647 60.9333 35.6647 61.4 35.6647 61.88ZM52.6741 72.92C50.8874 72.92 49.6474 71.8267 48.9541 69.64C48.2607 67.4267 47.9141 63.8667 47.9141 58.96C47.9141 56.2133 48.0074 53.8 48.1941 51.72C48.3807 49.6133 48.8074 47.9733 49.4741 46.8C50.1674 45.6 51.2341 45 52.6741 45C53.7141 45 54.5007 45.3067 55.0341 45.92C55.5941 46.5333 55.9807 47.4 56.1941 48.52C56.4341 49.64 56.5674 50.9733 56.5941 52.52C56.6207 54.0667 56.6341 55.7733 56.6341 57.64L56.7541 57.56C58.0874 56.6533 59.3807 55.88 60.6341 55.24C61.8874 54.5733 63.0341 54.24 64.0741 54.24C64.8474 54.24 65.4874 54.4267 65.9941 54.8C66.5274 55.1467 66.9274 55.6 67.1941 56.16C67.4607 56.6933 67.5941 57.24 67.5941 57.8C67.5941 58.8133 67.2341 59.7333 66.5141 60.56C65.7941 61.3867 64.8607 62.2267 63.7141 63.08C64.0341 63.48 64.3407 63.92 64.6341 64.4C64.9541 64.8533 65.2874 65.36 65.6341 65.92C66.0874 66.6133 66.4607 67.3333 66.7541 68.08C67.0474 68.8267 67.1941 69.5067 67.1941 70.12C67.1941 70.84 67.0207 71.4133 66.6741 71.84C66.3274 72.24 65.9007 72.5333 65.3941 72.72C64.8874 72.88 64.3807 72.9467 63.8741 72.92C63.1007 72.8667 62.3274 72.4933 61.5541 71.8C60.7807 71.1067 60.0341 70.2933 59.3141 69.36C58.9941 68.96 58.6741 68.5467 58.3541 68.12C58.0607 67.6667 57.7807 67.2267 57.5141 66.8C57.1141 66.96 56.7274 67.0933 56.3541 67.2C56.1674 69.1733 55.7941 70.6267 55.2341 71.56C54.7007 72.4667 53.8474 72.92 52.6741 72.92ZM75.5828 73C74.2761 73 73.0761 72.8 71.9828 72.4C70.9161 72 70.0628 71.4 69.4228 70.6C68.7828 69.7733 68.4628 68.7333 68.4628 67.48C68.4628 66.4133 68.7828 65.5067 69.4228 64.76C70.0628 64.0133 70.9161 63.44 71.9828 63.04C73.0761 62.64 74.2761 62.44 75.5828 62.44C76.3561 62.44 77.0628 62.5067 77.7028 62.64C78.3428 62.7467 78.7828 62.88 79.0228 63.04C79.0228 62.4267 78.7695 61.8933 78.2628 61.44C77.7561 60.96 76.8761 60.72 75.6228 60.72C75.0361 60.72 74.5695 60.7733 74.2228 60.88C73.9028 60.96 73.6095 61.0667 73.3428 61.2C73.0761 61.3333 72.7695 61.4533 72.4228 61.56C72.1028 61.64 71.6628 61.68 71.1028 61.68C70.2761 61.68 69.6095 61.4667 69.1028 61.04C68.6228 60.5867 68.3828 59.9067 68.3828 59C68.3828 58.1733 68.6095 57.4667 69.0628 56.88C69.5428 56.2667 70.1561 55.76 70.9028 55.36C71.6495 54.96 72.4495 54.6667 73.3028 54.48C74.1828 54.2933 75.0228 54.2 75.8228 54.2C78.1961 54.2 80.1295 54.64 81.6228 55.52C83.1161 56.3733 84.2228 57.4933 84.9428 58.88C85.6628 60.2667 86.0228 61.7733 86.0228 63.4C86.0228 64.3067 85.9428 65.1467 85.7828 65.92C85.6495 66.6933 85.4628 67.2933 85.2228 67.72C85.5961 68.04 85.8761 68.4133 86.0628 68.84C86.2761 69.2667 86.3828 69.7067 86.3828 70.16C86.3828 70.9067 86.1295 71.5733 85.6228 72.16C85.1428 72.72 84.4495 73 83.5428 73C82.8495 73 82.3028 72.8933 81.9028 72.68C81.5028 72.4667 81.1028 72.1867 80.7028 71.84C80.0628 72.2133 79.3561 72.5067 78.5828 72.72C77.8095 72.9067 76.8095 73 75.5828 73ZM76.3828 68.96C76.9961 68.96 77.4495 68.84 77.7428 68.6C78.0628 68.3333 78.2228 68.04 78.2228 67.72C78.2228 67.4 78.0628 67.12 77.7428 66.88C77.4495 66.6133 76.9961 66.48 76.3828 66.48C75.7961 66.48 75.3428 66.6133 75.0228 66.88C74.7028 67.12 74.5428 67.4 74.5428 67.72C74.5428 68.04 74.7028 68.3333 75.0228 68.6C75.3428 68.84 75.7961 68.96 76.3828 68.96ZM97.1216 73C95.1482 73 93.4416 72.5333 92.0016 71.6C90.5882 70.6667 89.4949 69.4533 88.7216 67.96C87.9749 66.4667 87.6016 64.9067 87.6016 63.28C87.6016 61.2 88.0149 59.4933 88.8416 58.16C89.6949 56.8267 90.7749 55.84 92.0816 55.2C93.3882 54.5333 94.7482 54.2 96.1616 54.2C96.8282 54.2 97.5082 54.28 98.2016 54.44C98.8949 54.5733 99.5482 54.8133 100.162 55.16C100.055 54.0133 99.8149 52.8933 99.4416 51.8C99.0949 50.68 98.9216 49.5467 98.9216 48.4C98.9216 47.2267 99.2816 46.36 100.002 45.8C100.722 45.24 101.495 44.96 102.322 44.96C103.282 44.96 104.108 45.2667 104.802 45.88C105.495 46.4933 106.082 47.3067 106.562 48.32C107.068 49.3333 107.468 50.48 107.762 51.76C108.055 53.0133 108.268 54.3067 108.402 55.64C108.535 56.9733 108.602 58.2533 108.602 59.48C108.602 59.88 108.575 60.4933 108.522 61.32C108.495 62.1467 108.375 63.0667 108.162 64.08C107.948 65.0933 107.602 66.12 107.122 67.16C106.668 68.2 106.015 69.16 105.162 70.04C104.335 70.92 103.268 71.64 101.962 72.2C100.655 72.7333 99.0416 73 97.1216 73ZM97.3616 66.68C98.0816 66.68 98.7082 66.4133 99.2416 65.88C99.7749 65.32 100.042 64.6667 100.042 63.92C100.042 63.1733 99.7749 62.52 99.2416 61.96C98.7082 61.4 98.0816 61.12 97.3616 61.12C96.6416 61.12 96.0016 61.4 95.4416 61.96C94.9082 62.52 94.6416 63.1733 94.6416 63.92C94.6416 64.6667 94.9082 65.32 95.4416 65.88C96.0016 66.4133 96.6416 66.68 97.3616 66.68ZM123.828 72.92C122.495 72.92 121.481 72.48 120.788 71.6C120.095 70.72 119.615 69.4133 119.348 67.68C119.108 65.92 118.988 63.7467 118.988 61.16C118.988 60.2267 119.001 59.3467 119.028 58.52C119.055 57.6933 119.081 56.92 119.108 56.2C115.908 56.04 113.561 55.5867 112.068 54.84C110.575 54.0933 109.828 52.8 109.828 50.96C109.828 48.6667 110.988 47.12 113.308 46.32C115.655 45.52 119.175 45.12 123.868 45.12C128.588 45.12 132.135 45.52 134.508 46.32C136.908 47.12 138.108 48.6667 138.108 50.96C138.108 52.7733 137.348 54.0667 135.828 54.84C134.335 55.5867 132.001 56.04 128.828 56.2C128.881 56.92 128.921 57.6933 128.948 58.52C128.975 59.3467 128.988 60.2267 128.988 61.16C128.988 65.24 128.628 68.2267 127.908 70.12C127.188 71.9867 125.828 72.92 123.828 72.92ZM140.788 73C139.881 73 139.134 72.7067 138.548 72.12C137.988 71.5067 137.561 70.6933 137.268 69.68C136.974 68.6667 136.774 67.5067 136.668 66.2C136.561 64.8933 136.508 63.5467 136.508 62.16C136.508 61.2267 136.521 60.28 136.548 59.32C136.601 58.3333 136.734 57.4267 136.948 56.6C137.188 55.7733 137.574 55.1067 138.108 54.6C138.668 54.0667 139.454 53.8 140.468 53.8C141.188 53.8 141.841 53.9733 142.428 54.32C143.014 54.64 143.388 55.1333 143.548 55.8C144.161 55.24 144.934 54.84 145.868 54.6C146.828 54.3333 147.814 54.2 148.828 54.2C149.681 54.2 150.548 54.4133 151.428 54.84C152.308 55.24 153.054 55.8 153.668 56.52C154.281 57.24 154.588 58.0533 154.588 58.96C154.588 59.7333 154.294 60.4667 153.708 61.16C153.148 61.8533 152.348 62.2 151.308 62.2C150.854 62.2 150.481 62.1467 150.188 62.04C149.894 61.9067 149.614 61.7867 149.348 61.68C149.081 61.5733 148.761 61.52 148.388 61.52C147.401 61.52 146.494 61.92 145.668 62.72C144.868 63.4933 144.468 64.5467 144.468 65.88C144.468 66.5733 144.441 67.3333 144.388 68.16C144.361 68.96 144.241 69.7333 144.028 70.48C143.841 71.2267 143.494 71.84 142.988 72.32C142.481 72.7733 141.748 73 140.788 73ZM162.575 73C161.268 73 160.068 72.8 158.975 72.4C157.908 72 157.055 71.4 156.415 70.6C155.775 69.7733 155.455 68.7333 155.455 67.48C155.455 66.4133 155.775 65.5067 156.415 64.76C157.055 64.0133 157.908 63.44 158.975 63.04C160.068 62.64 161.268 62.44 162.575 62.44C163.348 62.44 164.055 62.5067 164.695 62.64C165.335 62.7467 165.775 62.88 166.015 63.04C166.015 62.4267 165.762 61.8933 165.255 61.44C164.748 60.96 163.868 60.72 162.615 60.72C162.028 60.72 161.562 60.7733 161.215 60.88C160.895 60.96 160.602 61.0667 160.335 61.2C160.068 61.3333 159.762 61.4533 159.415 61.56C159.095 61.64 158.655 61.68 158.095 61.68C157.268 61.68 156.602 61.4667 156.095 61.04C155.615 60.5867 155.375 59.9067 155.375 59C155.375 58.1733 155.602 57.4667 156.055 56.88C156.535 56.2667 157.148 55.76 157.895 55.36C158.642 54.96 159.442 54.6667 160.295 54.48C161.175 54.2933 162.015 54.2 162.815 54.2C165.188 54.2 167.122 54.64 168.615 55.52C170.108 56.3733 171.215 57.4933 171.935 58.88C172.655 60.2667 173.015 61.7733 173.015 63.4C173.015 64.3067 172.935 65.1467 172.775 65.92C172.642 66.6933 172.455 67.2933 172.215 67.72C172.588 68.04 172.868 68.4133 173.055 68.84C173.268 69.2667 173.375 69.7067 173.375 70.16C173.375 70.9067 173.122 71.5733 172.615 72.16C172.135 72.72 171.442 73 170.535 73C169.842 73 169.295 72.8933 168.895 72.68C168.495 72.4667 168.095 72.1867 167.695 71.84C167.055 72.2133 166.348 72.5067 165.575 72.72C164.802 72.9067 163.802 73 162.575 73ZM163.375 68.96C163.988 68.96 164.442 68.84 164.735 68.6C165.055 68.3333 165.215 68.04 165.215 67.72C165.215 67.4 165.055 67.12 164.735 66.88C164.442 66.6133 163.988 66.48 163.375 66.48C162.788 66.48 162.335 66.6133 162.015 66.88C161.695 67.12 161.535 67.4 161.535 67.72C161.535 68.04 161.695 68.3333 162.015 68.6C162.335 68.84 162.788 68.96 163.375 68.96ZM184.213 72.96C183.733 72.96 183.187 72.9067 182.573 72.8C181.96 72.6933 181.227 72.3067 180.373 71.64C179.787 71.16 179.12 70.4133 178.373 69.4C177.627 68.3867 176.893 67.24 176.173 65.96C175.48 64.6533 174.907 63.32 174.453 61.96C174 60.5733 173.773 59.28 173.773 58.08C173.773 56.9067 174.107 55.9733 174.773 55.28C175.467 54.56 176.227 54.2 177.053 54.2C178.013 54.2 178.827 54.52 179.493 55.16C180.187 55.7733 180.787 56.6 181.293 57.64C181.827 58.68 182.307 59.8267 182.733 61.08C183.187 62.3333 183.627 63.5867 184.053 64.84C184.507 63.5867 184.947 62.3333 185.373 61.08C185.827 59.8 186.32 58.64 186.853 57.6C187.413 56.56 188.04 55.7333 188.733 55.12C189.427 54.48 190.24 54.1733 191.173 54.2C191.947 54.2267 192.653 54.5333 193.293 55.12C193.933 55.68 194.253 56.5867 194.253 57.84C194.253 59.1467 194.027 60.48 193.573 61.84C193.12 63.2 192.56 64.48 191.893 65.68C191.253 66.88 190.6 67.9333 189.933 68.84C189.293 69.7467 188.773 70.4 188.373 70.8C187.787 71.4667 187.12 72 186.373 72.4C185.627 72.7733 184.907 72.96 184.213 72.96ZM205.024 73C203.024 73 201.264 72.6133 199.744 71.84C198.251 71.04 197.078 69.96 196.224 68.6C195.398 67.2133 194.984 65.6267 194.984 63.84C194.984 62.1067 195.398 60.5067 196.224 59.04C197.078 57.5733 198.238 56.4 199.704 55.52C201.198 54.64 202.904 54.2 204.824 54.2C206.611 54.2 208.144 54.56 209.424 55.28C210.704 56 211.678 56.92 212.344 58.04C213.038 59.1333 213.384 60.2933 213.384 61.52C213.384 62.7467 213.104 63.76 212.544 64.56C211.984 65.3333 211.251 65.9333 210.344 66.36C209.464 66.76 208.518 67.0267 207.504 67.16C206.491 67.2933 205.518 67.32 204.584 67.24C203.651 67.1333 202.864 66.9733 202.224 66.76C202.704 67.5333 203.304 68.0667 204.024 68.36C204.771 68.6267 205.544 68.7467 206.344 68.72C207.171 68.6667 207.918 68.5733 208.584 68.44C209.411 68.2533 210.091 68.2933 210.624 68.56C211.158 68.8267 211.438 69.2533 211.464 69.84C211.491 70.32 211.318 70.8 210.944 71.28C210.598 71.76 209.958 72.1733 209.024 72.52C208.091 72.84 206.758 73 205.024 73ZM202.344 61.88C202.611 62.3067 202.998 62.6133 203.504 62.8C204.011 62.96 204.518 63.0133 205.024 62.96C205.558 62.9067 205.998 62.76 206.344 62.52C206.718 62.28 206.904 61.9467 206.904 61.52C206.904 61.0667 206.718 60.6667 206.344 60.32C205.998 59.9467 205.438 59.76 204.664 59.76C203.918 59.76 203.344 60 202.944 60.48C202.544 60.9333 202.344 61.4 202.344 61.88ZM220.055 72.92C218.695 72.92 217.682 72.4133 217.015 71.4C216.348 70.36 215.908 68.8133 215.695 66.76C215.482 64.68 215.375 62.08 215.375 58.96C215.375 56.9067 215.402 55.0267 215.455 53.32C215.535 51.6133 215.722 50.1467 216.015 48.92C216.308 47.6667 216.775 46.7067 217.415 46.04C218.055 45.3467 218.948 45 220.095 45C221.242 45 222.135 45.3467 222.775 46.04C223.415 46.7067 223.882 47.6667 224.175 48.92C224.468 50.1467 224.642 51.6133 224.695 53.32C224.775 55.0267 224.815 56.9067 224.815 58.96C224.815 63.6533 224.482 67.16 223.815 69.48C223.175 71.7733 221.922 72.92 220.055 72.92ZM231.5 53.6C230.194 53.6 229.087 53.1333 228.18 52.2C227.274 51.24 226.82 50.08 226.82 48.72C226.82 47.8133 227.02 47 227.42 46.28C227.847 45.56 228.407 44.9867 229.1 44.56C229.82 44.1067 230.62 43.88 231.5 43.88C232.354 43.88 233.127 44.1067 233.82 44.56C234.54 44.9867 235.114 45.56 235.54 46.28C235.967 47 236.18 47.8133 236.18 48.72C236.18 49.6267 235.967 50.4533 235.54 51.2C235.114 51.92 234.54 52.5067 233.82 52.96C233.127 53.3867 232.354 53.6 231.5 53.6ZM231.5 73C230.434 73 229.634 72.6933 229.1 72.08C228.594 71.4667 228.247 70.5333 228.06 69.28C227.9 68 227.807 66.36 227.78 64.36C227.78 62.36 227.86 60.72 228.02 59.44C228.207 58.16 228.567 57.2267 229.1 56.64C229.634 56.0267 230.434 55.72 231.5 55.72C232.567 55.72 233.354 56.0267 233.86 56.64C234.394 57.2267 234.754 58.16 234.94 59.44C235.127 60.72 235.22 62.36 235.22 64.36C235.247 66.36 235.167 68 234.98 69.28C234.794 70.5333 234.434 71.4667 233.9 72.08C233.367 72.6933 232.567 73 231.5 73ZM253.597 73C252.53 73 251.77 72.7067 251.317 72.12C250.89 71.5067 250.637 70.7467 250.557 69.84C250.477 68.9067 250.437 67.9733 250.437 67.04C250.437 65.6267 250.237 64.4933 249.837 63.64C249.437 62.76 248.73 62.32 247.717 62.32C246.81 62.32 246.144 62.76 245.717 63.64C245.29 64.4933 245.077 65.6267 245.077 67.04C245.077 67.9733 245.037 68.8933 244.957 69.8C244.904 70.7067 244.664 71.4667 244.237 72.08C243.81 72.6667 243.037 72.96 241.917 72.96C241.09 72.96 240.397 72.6533 239.837 72.04C239.304 71.4267 238.89 70.6267 238.597 69.64C238.304 68.6533 238.09 67.5867 237.957 66.44C237.85 65.2933 237.797 64.1867 237.797 63.12C237.797 62.0533 237.85 60.96 237.957 59.84C238.064 58.72 238.25 57.68 238.517 56.72C238.81 55.76 239.224 54.9867 239.757 54.4C240.29 53.8133 240.984 53.52 241.837 53.52C243.357 53.52 244.304 54.2133 244.677 55.6C244.997 55.2533 245.504 54.9333 246.197 54.64C246.917 54.32 247.73 54.16 248.637 54.16C250.69 54.16 252.37 54.68 253.677 55.72C254.984 56.76 255.93 58.2 256.517 60.04C257.13 61.8533 257.424 63.96 257.397 66.36C257.397 67.5867 257.277 68.7067 257.037 69.72C256.824 70.7067 256.437 71.5067 255.877 72.12C255.344 72.7067 254.584 73 253.597 73ZM267.337 79.84C265.844 79.84 264.591 79.5467 263.577 78.96C262.564 78.4 262.057 77.6267 262.057 76.64C262.057 75.6267 262.497 74.84 263.377 74.28C264.257 73.72 265.324 73.5467 266.577 73.76C268.044 73.9733 269.351 73.88 270.497 73.48C271.671 73.1067 272.364 72.5333 272.577 71.76C272.151 72 271.564 72.2 270.817 72.36C270.071 72.52 269.231 72.6 268.297 72.6C266.484 72.6 264.951 72.3333 263.697 71.8C262.471 71.24 261.484 70.5333 260.737 69.68C259.991 68.8 259.444 67.88 259.097 66.92C258.777 65.9333 258.617 65.0267 258.617 64.2C258.617 62.0133 259.084 60.1733 260.017 58.68C260.977 57.1867 262.191 56.0533 263.657 55.28C265.124 54.5067 266.631 54.12 268.177 54.12C268.684 54.12 269.284 54.16 269.977 54.24C270.697 54.2933 271.311 54.3867 271.817 54.52C272.031 53.8533 272.377 53.3067 272.857 52.88C273.364 52.4533 274.164 52.24 275.257 52.24C276.217 52.24 277.017 52.5733 277.657 53.24C278.297 53.88 278.804 54.76 279.177 55.88C279.551 56.9733 279.817 58.2 279.977 59.56C280.137 60.8933 280.204 62.28 280.177 63.72C280.177 65.1333 280.111 66.4667 279.977 67.72C279.711 70.2 279.031 72.3467 277.937 74.16C276.844 75.9733 275.391 77.3733 273.577 78.36C271.791 79.3467 269.711 79.84 267.337 79.84ZM268.817 66.6C269.644 66.6 270.364 66.2933 270.977 65.68C271.591 65.0667 271.897 64.36 271.897 63.56C271.897 62.7333 271.591 62.0133 270.977 61.4C270.364 60.7867 269.644 60.48 268.817 60.48C267.991 60.48 267.271 60.7867 266.657 61.4C266.071 62.0133 265.777 62.7333 265.777 63.56C265.777 64.36 266.071 65.0667 266.657 65.68C267.271 66.2933 267.991 66.6 268.817 66.6Z" fill="white"/>
<path d="M131.922 22.6917C127.278 19.8333 137.65 6.41666 138.222 6.41666C138.793 6.41666 149.235 20.3 144.195 22.5867L131.922 22.6917ZM141.5 24.22C141.5 24.9843 141.196 25.7172 140.656 26.2576C140.116 26.7981 139.383 27.1017 138.618 27.1017V27.1017C138.048 27.1017 137.491 26.9327 137.017 26.616C136.543 26.2994 136.174 25.8493 135.956 25.3228C135.738 24.7962 135.681 24.2168 135.792 23.6578C135.903 23.0988 136.178 22.5854 136.581 22.1823C136.984 21.7793 137.497 21.5049 138.056 21.3937C138.615 21.2825 139.195 21.3396 139.721 21.5577C140.248 21.7758 140.698 22.1451 141.014 22.619C141.331 23.0929 141.5 23.6501 141.5 24.22V24.22ZM132.668 22.4467C135.13 19.985 140.065 13.8133 146.237 26.145C156.095 19.985 147.403 25.4917 162.29 16.3217C166 24.92 159.84 32.3167 154.917 37.2517C156.083 40.95 159.455 46.1883 161.077 49.5833C153.68 48.3467 132.715 45.885 131.478 28.5833C126.543 24.29 130.242 27.5567 126.543 24.3717C130.907 23.0767 127.5 24.0333 132.715 22.4467H132.668Z" stroke="white" stroke-linecap="round" stroke-linejoin="round"/>
</svg>
